<svg xmlns="http://www.w3.org/2000/svg" xmlns:xlink="http://www.w3.org/1999/xlink" width="160.9" height="160.9" viewBox="0 0 42.571 42.571"><defs><pattern xlink:href="#b" id="a" patternTransform="matrix(.44159 .32887 -11.72994 15.7504 0 0)"/><pattern id="b" patternTransform="scale(10)" height="1" width="2" patternUnits="userSpaceOnUse"><path d="M0-.5h1v2H0z"/></pattern></defs><g font-weight="400" font-size="10.583" font-family="sans-serif" letter-spacing="0" word-spacing="0" fill="#070707" stroke-width=".265"><g aria-label="SPILLOVER INDEX" style="line-height:.41999999"><g style="line-height:1.05;-inkscape-font-specification:Bahnschrift;text-align:end" aria-label="CLASSIFICAÇÃO GERAL" font-size="4.939" font-family="Bahnschrift" letter-spacing="-.085" direction="rtl" text-anchor="end" stroke-width=".07" font-weight="700" font-stretch="condensed"><path style="-inkscape-font-specification:'Bahnschrift Bold Condensed'" d="M13.118 6.98q-.265 0-.453-.103-.188-.106-.29-.306-.098-.2-.098-.483V4.294q0-.282.099-.482.101-.2.29-.304.187-.106.452-.106.266 0 .454.106.19.104.29.306.098.2.098.482v.283h-.605v-.283q0-.089-.027-.154-.026-.065-.082-.099-.053-.036-.128-.036-.072 0-.125.034-.053.034-.082.099-.026.065-.026.154v1.794q0 .09.026.155.029.062.082.096.053.034.125.034.078 0 .13-.034.054-.034.08-.096.027-.065.027-.157v-.282h.605v.282q0 .282-.099.485-.099.2-.29.306-.187.104-.453.104zM14.208 3.438h.598v3.506h-.598zm.246 2.932h1.264v.574h-1.264zM16.663 3.438h.42l.836 3.506h-.593l-.453-2.298-.454 2.298h-.593zm-.268 2.402h.955v.56h-.955zM18.74 6.98q-.276 0-.474-.1-.197-.104-.303-.297-.104-.196-.104-.468v-.188l.595-.005v.188q0 .133.075.21.075.075.208.075.13 0 .2-.075.072-.075.072-.205v-.306q0-.097-.055-.167-.053-.072-.14-.123-.085-.053-.232-.125l-.019-.01-.017-.01-.031-.014q-.196-.099-.333-.205-.137-.108-.23-.284-.09-.176-.09-.435v-.18q0-.268.1-.459.104-.193.3-.294.195-.101.47-.101.268 0 .46.101.193.101.295.297.1.193.1.465v.198l-.595.007v-.2q0-.135-.07-.21-.067-.077-.19-.077-.13 0-.203.07-.07.068-.07.188v.234q0 .099.05.171.054.073.131.123.08.048.22.118.026.012.053.027l.058.029.007.005.01.004q.2.107.323.198.123.09.21.253.086.164.086.42v.292q0 .272-.104.468-.1.193-.296.296-.196.102-.468.102zM20.69 6.98q-.275 0-.473-.1-.198-.104-.304-.297-.103-.196-.103-.468v-.188l.595-.005v.188q0 .133.075.21.075.075.207.075.13 0 .2-.075.073-.075.073-.205v-.306q0-.097-.056-.167-.053-.072-.14-.123-.084-.053-.231-.125l-.02-.01q-.006-.005-.016-.01l-.032-.014q-.195-.099-.332-.205-.138-.108-.23-.284-.091-.176-.091-.435v-.18q0-.268.101-.459.104-.193.3-.294.195-.101.47-.101.267 0 .46.101t.294.297q.102.193.102.465v.198l-.596.007v-.2q0-.135-.07-.21-.067-.077-.19-.077-.13 0-.203.07-.07.068-.07.188v.234q0 .099.05.171.054.073.13.123.08.048.22.118.027.012.053.027l.058.029q.005.002.007.005l.01.004q.2.107.323.198.123.09.21.253.087.164.087.42v.292q0 .272-.104.468-.101.193-.296.296-.196.102-.468.102zM22.407 6.944h-.599V3.438h.599zM22.708 3.438h.598v3.506h-.598zm.267 1.51h1.172v.574h-1.172zm0-1.51h1.293v.574h-1.293zM25.044 6.944h-.598V3.438h.598zM26.187 6.98q-.265 0-.453-.103-.188-.106-.29-.306-.099-.2-.099-.483V4.294q0-.282.1-.482t.289-.304q.188-.106.453-.106t.453.106q.191.104.29.306.099.2.099.482v.283h-.606v-.283q0-.089-.026-.154-.027-.065-.082-.099-.053-.036-.128-.036-.072 0-.125.034-.053.034-.082.099-.027.065-.027.154v1.794q0 .09.027.155.029.062.082.096.053.034.125.034.077 0 .13-.034.053-.034.08-.096.026-.065.026-.157v-.282h.606v.282q0 .282-.1.485-.098.2-.289.306-.188.104-.453.104zM27.848 3.438h.42l.837 3.506h-.593l-.454-2.298-.453 2.298h-.593zm-.267 2.402h.955v.56h-.955zM29.934 6.98q-.265 0-.453-.103-.188-.106-.29-.306-.099-.2-.099-.483V4.294q0-.282.1-.482t.289-.304q.188-.106.453-.106t.454.106q.19.104.289.306.099.2.099.482v.283h-.606v-.283q0-.089-.026-.154-.027-.065-.082-.099-.053-.036-.128-.036-.072 0-.125.034-.053.034-.082.099-.027.065-.027.154v1.794q0 .09.027.155.029.062.082.096.053.034.125.034.077 0 .13-.034.053-.034.08-.096.026-.065.026-.157v-.282h.606v.282q0 .282-.1.485-.098.2-.288.306-.189.104-.454.104zm-.055.982q-.203 0-.362-.043l.106-.379q.082.034.18.034.085 0 .126-.024.041-.022.041-.07 0-.053-.07-.08-.07-.026-.212-.026l.246-.29q.27 0 .4.106.133.109.133.328 0 .225-.145.333-.144.111-.443.111zm.243-1.165v.581l-.472-.004v-.577zM31.644 3.438h.42l.836 3.506h-.593l-.454-2.298-.453 2.298h-.593zm-.268 2.402h.955v.56h-.955zm.803-2.67q-.043 0-.087-.007-.043-.007-.087-.022-.04-.014-.084-.038l-.005-.003-.014-.004-.012-.01q-.044-.024-.085-.036-.04-.012-.08-.012-.043 0-.06.021-.016.02-.016.066v.053h-.483V3.05q0-.287.104-.434.104-.147.304-.147.075 0 .135.017.063.014.12.04l.005.003q.007.005.015.007.01.003.017.007.045.022.08.034.033.01.067.01.045 0 .067-.027.022-.029.022-.082v-.053h.485v.125q0 .307-.104.464-.104.156-.304.156zM33.881 6.98q-.282 0-.484-.096-.2-.099-.307-.282-.106-.186-.106-.446v-1.93q0-.26.106-.446.106-.185.307-.282.202-.096.484-.096t.483.096q.202.097.308.282.106.186.106.447v1.929q0 .26-.106.446-.106.183-.308.282-.2.097-.483.097zm0-.598q.092 0 .157-.036.068-.036.101-.103.034-.068.034-.164v-1.78q0-.094-.034-.162-.033-.067-.1-.103-.066-.037-.158-.037-.091 0-.156.037-.066.036-.1.103-.033.068-.033.162v1.78q0 .096.034.164.033.067.099.103.065.036.156.036zM14.028 10.237v1.05q0 .274-.104.472-.101.198-.297.304-.195.103-.468.103-.277 0-.475-.1-.197-.102-.303-.295-.104-.193-.104-.46V9.491q0-.282.101-.485.104-.205.3-.31.194-.11.467-.11.268 0 .458.104.193.104.294.302.102.198.102.472v.27h-.615v-.27q0-.084-.03-.144-.028-.063-.084-.094-.053-.034-.125-.034-.08 0-.14.036-.058.036-.09.104-.03.067-.03.159v1.818q0 .075.03.133.035.055.097.087.063.029.147.029.087 0 .15-.032.065-.031.099-.091t.034-.145v-.48h-.295v-.574zM14.324 8.624h.598v3.506h-.598zm.265 2.923h1.293v.583h-1.293zm0-1.45h1.172v.581H14.59zm0-1.473h1.293v.583h-1.293zM16.378 10.073h.632q.077 0 .133-.026.058-.03.087-.08.029-.053.029-.125V9.45q0-.08-.03-.137-.028-.058-.086-.087-.056-.032-.133-.032h-.632v-.574h.596q.285 0 .485.094.202.092.308.273.107.178.107.43v.41q0 .257-.107.443-.106.183-.308.28-.203.096-.485.096h-.596zm-.267-1.452h.586v3.51h-.586zm.755 1.918l.547-.111.56 1.702h-.642z"/><path style="-inkscape-font-specification:'Bahnschrift Bold Condensed'" d="M18.807 8.624h.42l.836 3.506h-.593l-.454-2.298-.453 2.298h-.593zm-.268 2.402h.955v.56h-.955zM20.244 8.624h.598v3.506h-.598zm.246 2.932h1.263v.574H20.49z"/></g></g><g style="line-height:125%"><path d="M4.417 8.5H5.84v1.537h1.194V8.501h1.41V7.383h-1.41V5.846H5.84v1.537H4.417z" style="-inkscape-font-specification:'Giorgio Sans LCG'" font-size="12.7" font-family="Giorgio Sans LCG" aria-label="+"/></g></g></svg>