<svg xmlns="http://www.w3.org/2000/svg" xmlns:xlink="http://www.w3.org/1999/xlink" width="160.9" height="160.9" viewBox="0 0 42.571 42.571"><defs><pattern xlink:href="#b" id="a" patternTransform="matrix(.44159 .32887 -11.72994 15.7504 0 0)"/><pattern id="b" patternTransform="scale(10)" height="1" width="2" patternUnits="userSpaceOnUse"><path d="M0-.5h1v2H0z"/></pattern></defs><g font-weight="400" font-size="10.583" font-family="sans-serif" letter-spacing="0" word-spacing="0" fill="#070707" stroke-width=".265"><g aria-label="SPILLOVER INDEX" style="line-height:.41999999"><g style="line-height:1.05;-inkscape-font-specification:Bahnschrift;text-align:end" aria-label="PONTUAÇÃO GERAL" font-size="4.939" font-family="Bahnschrift" letter-spacing="-.085" direction="rtl" text-anchor="end" stroke-width=".07" font-weight="700" font-stretch="condensed"><path style="-inkscape-font-specification:'Bahnschrift Bold Condensed'" d="M12.557 5.01h.62q.072 0 .125-.033.053-.034.082-.1.029-.064.029-.154v-.412q0-.094-.03-.162-.026-.067-.079-.1-.053-.037-.128-.037h-.62v-.574h.637q.26 0 .446.092.186.091.283.27.096.176.096.424v.591q0 .244-.099.417-.096.171-.282.263-.186.09-.444.09h-.636zm-.28-1.572h.598v3.506h-.598zM15.202 6.98q-.282 0-.485-.096-.2-.099-.306-.282-.106-.186-.106-.446v-1.93q0-.26.106-.446.106-.185.306-.282.203-.096.485-.096t.482.096q.203.097.309.282.106.186.106.447v1.929q0 .26-.106.446-.106.183-.309.282-.2.097-.482.097zm0-.598q.091 0 .157-.036.067-.036.1-.103.035-.068.035-.164v-1.78q0-.094-.034-.162-.034-.067-.101-.103-.066-.037-.157-.037-.092 0-.157.037-.065.036-.099.103-.034.068-.034.162v1.78q0 .096.034.164.034.067.1.103.064.036.156.036zM16.4 3.438h.47l.825 2.34-.065.093V3.438h.545v3.504H17.7l-.815-2.204.063-.097v2.301H16.4zM19.055 3.732h.598v3.212h-.598zm-.579-.294h1.756v.574h-1.756zM21.138 6.98q-.26 0-.45-.103-.189-.106-.288-.304-.099-.2-.099-.477V3.438h.601v2.674q0 .128.063.2.062.07.173.07.114 0 .176-.07.065-.072.065-.2V3.438h.6v2.658q0 .277-.1.477-.1.198-.29.304-.188.104-.45.104zM22.814 3.438h.42l.837 3.506h-.594l-.453-2.298-.453 2.298h-.594zm-.268 2.402h.955v.56h-.955zM24.9 6.98q-.265 0-.454-.103-.188-.106-.289-.306-.099-.2-.099-.483V4.294q0-.282.1-.482t.288-.304q.189-.106.454-.106t.453.106q.19.104.29.306.098.2.098.482v.283h-.605v-.283q0-.089-.026-.154-.027-.065-.082-.099-.053-.036-.128-.036-.073 0-.126.034-.053.034-.082.099-.026.065-.026.154v1.794q0 .09.026.155.03.062.082.096.053.034.126.034.077 0 .13-.034.053-.034.08-.096.026-.065.026-.157v-.282h.605v.282q0 .282-.098.485-.1.2-.29.306-.188.104-.453.104zm-.056.982q-.202 0-.361-.043l.106-.379q.082.034.18.034.085 0 .126-.024.041-.022.041-.07 0-.053-.07-.08-.07-.026-.212-.026l.246-.29q.27 0 .4.106.133.109.133.328 0 .225-.145.333-.145.111-.444.111zm.244-1.165v.581l-.473-.004v-.577zM26.61 3.438h.419l.837 3.506h-.593l-.454-2.298-.453 2.298h-.593zm-.268 2.402h.955v.56h-.955zm.803-2.67q-.044 0-.087-.007-.044-.007-.087-.022-.04-.014-.084-.038l-.005-.003-.015-.004-.012-.01q-.043-.024-.084-.036-.041-.012-.08-.012-.043 0-.06.021-.017.02-.017.066v.053h-.482V3.05q0-.287.104-.434.103-.147.303-.147.075 0 .135.017.063.014.121.04l.005.003q.007.005.014.007.01.003.017.007.046.022.08.034.034.01.067.01.046 0 .068-.027.022-.029.022-.082v-.053h.484v.125q0 .307-.103.464-.104.156-.304.156zM28.847 6.98q-.282 0-.485-.096-.2-.099-.306-.282-.106-.186-.106-.446v-1.93q0-.26.106-.446.106-.185.306-.282.203-.096.485-.096t.482.096q.203.097.309.282.106.186.106.447v1.929q0 .26-.106.446-.106.183-.309.282-.2.097-.482.097zm0-.598q.092 0 .157-.036.067-.036.101-.103.034-.068.034-.164v-1.78q0-.094-.034-.162-.034-.067-.101-.103-.065-.037-.157-.037t-.157.037q-.065.036-.099.103-.033.068-.033.162v1.78q0 .096.033.164.034.067.1.103.064.036.156.036zM14.028 10.237v1.05q0 .274-.104.472-.101.198-.297.304-.195.103-.468.103-.277 0-.475-.1-.197-.102-.303-.295-.104-.193-.104-.46V9.491q0-.282.101-.485.104-.205.3-.31.194-.11.467-.11.268 0 .458.104.193.104.294.302.102.198.102.472v.27h-.615v-.27q0-.084-.03-.144-.028-.063-.084-.094-.053-.034-.125-.034-.08 0-.14.036-.058.036-.09.104-.03.067-.03.159v1.818q0 .075.03.133.035.055.097.087.063.029.147.029.087 0 .15-.032.065-.031.099-.091t.034-.145v-.48h-.295v-.574zM14.324 8.624h.598v3.506h-.598zm.265 2.923h1.293v.583h-1.293zm0-1.45h1.172v.581H14.59zm0-1.473h1.293v.583h-1.293zM16.378 10.073h.632q.077 0 .133-.026.058-.03.087-.08.029-.053.029-.125V9.45q0-.08-.03-.137-.028-.058-.086-.087-.056-.032-.133-.032h-.632v-.574h.596q.285 0 .485.094.202.092.308.273.107.178.107.43v.41q0 .257-.107.443-.106.183-.308.28-.203.096-.485.096h-.596zm-.267-1.452h.586v3.51h-.586zm.755 1.918l.547-.111.56 1.702h-.642z"/><path style="-inkscape-font-specification:'Bahnschrift Bold Condensed'" d="M18.807 8.624h.42l.836 3.506h-.593l-.454-2.298-.453 2.298h-.593zm-.268 2.402h.955v.56h-.955zM20.244 8.624h.598v3.506h-.598zm.246 2.932h1.263v.574H20.49z"/></g></g><g style="line-height:125%"><path d="M4.417 8.5H5.84v1.537h1.194V8.501h1.41V7.383h-1.41V5.846H5.84v1.537H4.417z" style="-inkscape-font-specification:'Giorgio Sans LCG'" font-size="12.7" font-family="Giorgio Sans LCG" aria-label="+"/></g></g></svg>